<svg width="512" height="512" viewBox="0 0 512 512" fill="none" xmlns="http://www.w3.org/2000/svg">
<path d="M382 258.282C382 330.202 327.297 386 255.5 386C183.703 386 129 330.202 129 258.282C129 219.716 165 230.145 256.5 229.233C348 228.321 382 220.718 382 258.282Z" fill="url(#paint0_radial_10_37)"/>
<circle cx="255.5" cy="415.5" r="96.5" fill="url(#paint1_linear_10_37)"/>
<rect x="142" y="187" width="228" height="87" rx="33" fill="url(#paint2_linear_10_37)"/>
<path fill-rule="evenodd" clip-rule="evenodd" d="M256 512C397.385 512 512 397.385 512 256C512 114.615 397.385 0 256 0C114.615 0 0 114.615 0 256C0 397.385 114.615 512 256 512ZM255.5 386C327.297 386 382 330.202 382 258.282C382 226.48 357.63 227.051 294.63 228.528C283.216 228.795 270.535 229.093 256.5 229.233C237.951 229.418 221.682 229.136 207.533 228.892C151.883 227.93 129 227.535 129 258.282C129 330.202 183.703 386 255.5 386Z" fill="url(#paint3_linear_10_37)"/>
<path d="M120.5 151C120.5 151 139 118.5 165.5 118.5C192 118.5 212 151 212 151" stroke="#412929" stroke-width="36" stroke-linecap="round"/>
<path d="M299.383 151.058C299.383 151.058 317.883 118.558 344.383 118.558C370.883 118.558 390.883 151.058 390.883 151.058" stroke="#412929" stroke-width="36" stroke-linecap="round"/>
<defs>
<radialGradient id="paint0_radial_10_37" cx="0" cy="0" r="1" gradientUnits="userSpaceOnUse" gradientTransform="translate(255.5 307) rotate(89.5061) scale(58.0022 92.8769)">
<stop stop-color="#5C4242"/>
<stop offset="1" stop-color="#412929"/>
</radialGradient>
<linearGradient id="paint1_linear_10_37" x1="256" y1="323" x2="256" y2="386" gradientUnits="userSpaceOnUse">
<stop offset="0.182292" stop-color="#FF9911"/>
<stop offset="1" stop-color="#FF6D02"/>
</linearGradient>
<linearGradient id="paint2_linear_10_37" x1="256" y1="164.5" x2="256" y2="244" gradientUnits="userSpaceOnUse">
<stop stop-color="#151515"/>
<stop offset="1" stop-color="white"/>
</linearGradient>
<linearGradient id="paint3_linear_10_37" x1="63" y1="94.5" x2="465" y2="396.5" gradientUnits="userSpaceOnUse">
<stop stop-color="#FFF1AA"/>
<stop offset="0.119792" stop-color="#FFF2B4"/>
<stop offset="0.239583" stop-color="#FFE669"/>
<stop offset="0.458333" stop-color="#FFDA26"/>
<stop offset="0.947917" stop-color="#FF7700"/>
</linearGradient>
</defs>
</svg>
