<svg width="330" height="568" viewBox="0 0 330 568" fill="none" xmlns="http://www.w3.org/2000/svg">
<path d="M175 17.9998L299.999 89.4998L242 123L118 51.4998L175 17.9998Z" fill="#FFEB9A"/>
<path d="M218 205.5L329 270L272.499 302L161 238.453L218 205.5Z" fill="#FFEB9A"/>
<path d="M118 51.4997L242 123L122.5 293L13.0001 230.5L118 51.4997Z" fill="#FEDA44"/>
<path d="M272.5 302L329 270L99.9999 497L42.4999 530L272.5 302Z" fill="#FF9911"/>
<path d="M242 123L299.5 89.4998L218 205.5L160.5 239L242 123Z" fill="#FF9911"/>
<path d="M156.22 235.632L272.5 302L221 353L113.721 288.132L156.22 235.632Z" fill="#FEDA44"/>
<path d="M42.4998 530L135.999 295.499L272.5 302L42.4998 530Z" fill="#FEDA44"/>
</svg>
