<svg width="510" height="510" viewBox="0 0 510 510" fill="none" xmlns="http://www.w3.org/2000/svg">
<mask id="mask0_11_88" style="mask-type:alpha" maskUnits="userSpaceOnUse" x="0" y="0" width="510" height="510">
<circle cx="255" cy="255" r="255" fill="url(#paint0_linear_11_88)"/>
</mask>
<g mask="url(#mask0_11_88)">
<path d="M510 255C510 395.833 395.833 510 255 510C114.167 510 0 395.833 0 255C0 114.167 114.167 0 255 0C395.833 0 510 114.167 510 255Z" fill="url(#paint1_radial_11_88)"/>
<path d="M65.9999 57C65.9999 57 166.5 115 266 210.5C365.5 306 467 463.5 467 463.5" stroke="#443134" stroke-width="12"/>
<path d="M36.9997 420C36.9997 420 1.50051 237.5 162.5 105C323.5 -27.5 400.5 37.5 400.5 37.5" stroke="#443134" stroke-width="12"/>
<path d="M0.999815 186.5C0.999815 186.5 67.4998 107 121.5 192.5C175.5 278 139.5 294 196 426C252.5 558 389.5 583.5 389.5 583.5" stroke="#443134" stroke-width="12"/>
<path d="M189 -11.5C189 -11.5 155 49 229.5 80C304 111 384.062 117.418 431 141C522.112 186.775 517 261.5 517 261.5" stroke="#443134" stroke-width="12"/>
<path d="M362.103 208.893C368.478 196.676 364.134 151.01 364.134 151.01C364.134 151.01 382.883 195.487 388.588 198.682C394.784 202.15 438.491 188.199 438.491 188.199C438.491 188.199 399.494 210.431 393.629 220.908C387.764 231.384 392.608 280.283 392.608 280.283C392.608 280.283 377.449 238.845 369.32 233.161C361.191 227.478 319.64 237.421 319.64 237.421C319.64 237.421 355.728 221.11 362.103 208.893Z" fill="white"/>
<path d="M87.7203 345.794C83.4603 338.811 61.4521 323.254 61.4521 323.254C61.4521 323.254 86.4378 332.127 89.8093 330.204C93.4705 328.115 99.7603 301.618 99.7603 301.618C99.7603 301.618 99.1233 328.256 102.655 334.446C106.186 340.637 132.535 353.148 132.535 353.148C132.535 353.148 105.643 346.524 100.263 348.917C94.884 351.31 88.1661 378.106 88.1661 378.106C88.1661 378.106 91.9803 352.777 87.7203 345.794Z" fill="white"/>
</g>
<defs>
<linearGradient id="paint0_linear_11_88" x1="73.5" y1="84.5" x2="444" y2="428" gradientUnits="userSpaceOnUse">
<stop stop-color="#FF8800"/>
<stop offset="0.702456" stop-color="#F77801"/>
<stop offset="0.7885" stop-color="#F06B02"/>
<stop offset="0.874503" stop-color="#E95E02"/>
<stop offset="1" stop-color="#E14F01"/>
</linearGradient>
<radialGradient id="paint1_radial_11_88" cx="0" cy="0" r="1" gradientUnits="userSpaceOnUse" gradientTransform="translate(90 35) rotate(45.5636) scale(539.195 345.351)">
<stop offset="0.0505168" stop-color="#FFBD61"/>
<stop offset="0.634372" stop-color="#FF9214"/>
<stop offset="0.775795" stop-color="#FF7D04"/>
<stop offset="0.845196" stop-color="#FF7100"/>
<stop offset="0.966067" stop-color="#F25501"/>
</radialGradient>
</defs>
</svg>
